<svg width="128" height="128" viewBox="0 0 128 128" fill="none" xmlns="http://www.w3.org/2000/svg">
  <defs>
    <linearGradient id="bg" x1="16" y1="12" x2="112" y2="116" gradientUnits="userSpaceOnUse">
      <stop stop-color="#102033"/>
      <stop offset="1" stop-color="#193C63"/>
    </linearGradient>
    <linearGradient id="accent" x1="42" y1="32" x2="91" y2="92" gradientUnits="userSpaceOnUse">
      <stop stop-color="#FFB347"/>
      <stop offset="1" stop-color="#FF5D3D"/>
    </linearGradient>
    <linearGradient id="glow" x1="64" y1="28" x2="64" y2="112" gradientUnits="userSpaceOnUse">
      <stop stop-color="#7DE2D1" stop-opacity="0.55"/>
      <stop offset="1" stop-color="#7DE2D1" stop-opacity="0"/>
    </linearGradient>
  </defs>

  <rect x="8" y="8" width="112" height="112" rx="28" fill="url(#bg)"/>
  <rect x="12" y="12" width="104" height="104" rx="24" stroke="#FFFFFF" stroke-opacity="0.08" stroke-width="2"/>

  <circle cx="64" cy="74" r="34" fill="url(#glow)"/>

  <path d="M35 40L22 53L35 66" stroke="#ECF4FF" stroke-width="8" stroke-linecap="round" stroke-linejoin="round"/>
  <path d="M93 40L106 53L93 66" stroke="#ECF4FF" stroke-width="8" stroke-linecap="round" stroke-linejoin="round"/>

  <circle cx="64" cy="57" r="22" fill="url(#accent)"/>
  <path d="M64 47V58" stroke="#102033" stroke-width="7" stroke-linecap="round"/>
  <circle cx="64" cy="66.5" r="3.8" fill="#102033"/>

  <path d="M49 86C53.5 81.5 59 79 64 79C69 79 74.5 81.5 79 86" stroke="#ECF4FF" stroke-width="7" stroke-linecap="round"/>
  <path d="M41 96C47.5 88 55.5 84 64 84C72.5 84 80.5 88 87 96" stroke="#9DEEE0" stroke-width="6" stroke-linecap="round" opacity="0.95"/>
  <path d="M33 105C42 94 52.5 88.5 64 88.5C75.5 88.5 86 94 95 105" stroke="#5FD6C1" stroke-width="5" stroke-linecap="round" opacity="0.9"/>
</svg>
